<svg width="116" height="116" viewBox="0 0 116 116" fill="none" xmlns="http://www.w3.org/2000/svg">
<circle cx="58" cy="58" r="58" fill="#F4F8FC"/>
<path fill-rule="evenodd" clip-rule="evenodd" d="M28.192 69.864C28.192 71.5341 29.5459 72.888 31.216 72.888H94.288C95.9581 72.888 97.312 71.5341 97.312 69.864C97.312 68.1938 95.9581 66.84 94.288 66.84H91.696C90.0259 66.84 88.672 65.4861 88.672 63.816C88.672 62.1458 90.0259 60.792 91.696 60.792H99.904C101.574 60.792 102.928 59.4381 102.928 57.768C102.928 56.0978 101.574 54.7439 99.904 54.7439H90.4C92.0701 54.7439 93.424 53.3901 93.424 51.7199C93.424 50.0498 92.0701 48.6959 90.4 48.6959H62.752C64.4221 48.6959 65.776 47.3421 65.776 45.6719C65.776 44.0018 64.4221 42.6479 62.752 42.6479H38.128C36.4579 42.6479 35.104 44.0018 35.104 45.6719C35.104 47.3421 36.4579 48.6959 38.128 48.6959H20.848C19.1779 48.6959 17.824 50.0498 17.824 51.7199C17.824 53.3901 19.1779 54.7439 20.848 54.7439H31.648C33.3181 54.7439 34.672 56.0978 34.672 57.768C34.672 59.4381 33.3181 60.792 31.648 60.792H14.368C12.6979 60.792 11.344 62.1458 11.344 63.816C11.344 65.4861 12.6979 66.84 14.368 66.84H31.216C29.5459 66.84 28.192 68.1938 28.192 69.864ZM104.656 69.8639C104.656 71.534 103.302 72.8879 101.632 72.8879C99.9619 72.8879 98.608 71.534 98.608 69.8639C98.608 68.1938 99.9619 66.8399 101.632 66.8399C103.302 66.8399 104.656 68.1938 104.656 69.8639Z" fill="#08948A" fill-opacity="0.35"/>
<path fill-rule="evenodd" clip-rule="evenodd" d="M71.7693 76.3954C73.0817 75.5509 74.2486 74.4971 75.0078 73.6464L71.7693 76.3954ZM76.2328 72.2327C76.8608 71.4636 77.4252 70.6593 77.9261 69.8268C79.0277 67.9958 79.8218 66.0287 80.3071 64.0006C80.7979 61.9494 80.9729 59.8359 80.8309 57.7378C80.7069 55.907 80.3416 54.088 79.7341 52.3323C79.1314 50.5904 78.2902 48.911 77.2099 47.3444C76.5662 46.4109 75.8375 45.5175 75.0237 44.6748C73.829 43.4376 72.5185 42.3799 71.1261 41.5024C69.63 40.5595 68.0393 39.8246 66.3959 39.2984C64.3378 38.6395 62.1971 38.3081 60.056 38.3057C58.3901 38.3038 56.724 38.5011 55.0965 38.8984C53.2642 39.3456 51.4809 40.0463 49.8017 41.0014C48.3256 41.841 46.9301 42.8772 45.6526 44.1108C44.0473 45.6611 42.747 47.4086 41.7528 49.2789C40.7794 51.1099 40.0995 53.0586 39.7142 55.0549C39.3172 57.1116 39.2329 59.2189 39.4624 61.3001C39.7599 63.9977 40.5847 66.6516 41.9393 69.0951C42.8061 70.6586 43.8899 72.1361 45.1913 73.4837C47.2573 75.6231 49.6693 77.2257 52.2527 78.2883C55.3943 79.5805 58.7893 80.0739 62.1235 79.7625C64.9219 79.5012 67.6775 78.673 70.2045 77.2743" fill="white"/>
<path d="M71.477 75.9413C71.2263 76.1027 71.1538 76.4369 71.3152 76.6877C71.4766 76.9385 71.8107 77.0109 72.0615 76.8495L71.477 75.9413ZM75.4107 74.006C75.6093 73.7834 75.5899 73.4421 75.3673 73.2435C75.1448 73.0449 74.8035 73.0644 74.6049 73.2869L75.4107 74.006ZM77.9261 69.8268L77.4634 69.5484L77.9261 69.8268ZM80.3071 64.0006L80.8323 64.1262L80.3071 64.0006ZM80.8309 57.7378L81.3696 57.7014L80.8309 57.7378ZM79.7341 52.3323L79.2238 52.5089L79.7341 52.3323ZM77.2099 47.3444L76.7654 47.651L77.2099 47.3444ZM75.0237 44.6748L74.6353 45.05L75.0237 44.6748ZM71.1261 41.5024L71.414 41.0455L71.1261 41.5024ZM66.3959 39.2984L66.2313 39.8127L66.2313 39.8127L66.3959 39.2984ZM60.056 38.3057L60.0554 38.8457L60.056 38.3057ZM55.0965 38.8984L55.2245 39.423L55.0965 38.8984ZM49.8017 41.0014L49.5347 40.532L49.8017 41.0014ZM45.6526 44.1108L46.0278 44.4993L45.6526 44.1108ZM41.7528 49.2789L41.2759 49.0254L41.7528 49.2789ZM39.7142 55.0549L39.184 54.9526L39.7142 55.0549ZM39.4624 61.3001L38.9256 61.3593L39.4624 61.3001ZM41.9393 69.0951L42.4116 68.8333L41.9393 69.0951ZM45.1913 73.4837L45.5797 73.1086L45.1913 73.4837ZM52.2527 78.2883L52.0472 78.7877L52.2527 78.2883ZM62.1235 79.7625L62.0733 79.2248L62.1235 79.7625ZM70.466 77.7468C70.7269 77.6024 70.8214 77.2738 70.677 77.0128C70.5326 76.7519 70.204 76.6575 69.943 76.8019L70.466 77.7468ZM72.0615 76.8495C73.418 75.9766 74.6216 74.8902 75.4107 74.006L74.6049 73.2869C73.8757 74.104 72.7455 75.1251 71.477 75.9413L72.0615 76.8495ZM76.6511 72.5742C77.2955 71.785 77.8748 70.9596 78.3888 70.1052L77.4634 69.5484C76.9757 70.3589 76.4261 71.1422 75.8145 71.8912L76.6511 72.5742ZM78.3888 70.1052C79.5195 68.2259 80.3343 66.2072 80.8323 64.1262L79.7819 63.8749C79.3092 65.8502 78.536 67.7657 77.4634 69.5484L78.3888 70.1052ZM80.8323 64.1262C81.3358 62.0218 81.5153 59.8536 81.3696 57.7014L80.2921 57.7743C80.4305 59.8183 80.2599 61.8771 79.7819 63.8749L80.8323 64.1262ZM81.3696 57.7014C81.2425 55.8233 80.8677 53.9571 80.2444 52.1557L79.2238 52.5089C79.8155 54.2188 80.1714 55.9908 80.2921 57.7743L81.3696 57.7014ZM80.2444 52.1557C79.6259 50.3684 78.7629 48.6452 77.6545 47.0379L76.7654 47.651C77.8176 49.1768 78.6368 50.8124 79.2238 52.5089L80.2444 52.1557ZM77.6545 47.0379C76.994 46.0801 76.2466 45.1638 75.4122 44.2997L74.6353 45.05C75.4284 45.8713 76.1384 46.7418 76.7654 47.651L77.6545 47.0379ZM75.4122 44.2997C74.1871 43.0311 72.8428 41.946 71.414 41.0455L70.8382 41.9592C72.1942 42.8138 73.4709 43.8442 74.6353 45.05L75.4122 44.2997ZM71.414 41.0455C69.8789 40.078 68.2467 39.324 66.5606 38.7841L66.2313 39.8127C67.8319 40.3252 69.3811 41.0409 70.8382 41.9592L71.414 41.0455ZM66.5606 38.7841C64.449 38.1081 62.2529 37.7681 60.0566 37.7657L60.0554 38.8457C62.1412 38.848 64.2266 39.1709 66.2313 39.8127L66.5606 38.7841ZM60.0566 37.7657C58.3477 37.7637 56.6384 37.9662 54.9684 38.3738L55.2245 39.423C56.8096 39.0361 58.4325 38.8438 60.0554 38.8457L60.0566 37.7657ZM54.9684 38.3738C53.0883 38.8327 51.2581 39.5517 49.5347 40.532L50.0687 41.4707C51.7036 40.5408 53.4401 39.8585 55.2245 39.423L54.9684 38.3738ZM49.5347 40.532C48.0197 41.3937 46.5878 42.4571 45.2775 43.7224L46.0278 44.4993C47.2724 43.2973 48.6316 42.2882 50.0687 41.4707L49.5347 40.532ZM45.2775 43.7224C43.6309 45.3125 42.2964 47.1057 41.2759 49.0254L42.2296 49.5324C43.1975 47.7115 44.4637 46.0097 46.0278 44.4993L45.2775 43.7224ZM41.2759 49.0254C40.2769 50.9047 39.5793 52.9044 39.184 54.9526L40.2444 55.1573C40.6197 53.2128 41.2819 51.3152 42.2296 49.5324L41.2759 49.0254ZM39.184 54.9526C38.7767 57.0626 38.6902 59.2243 38.9256 61.3593L39.9991 61.2409C39.7755 59.2134 39.8577 57.1606 40.2444 55.1573L39.184 54.9526ZM38.9256 61.3593C39.2308 64.1266 40.077 66.8495 41.467 69.3569L42.4116 68.8333C41.0923 66.4536 40.289 63.8688 39.9991 61.2409L38.9256 61.3593ZM41.467 69.3569C42.3565 70.9614 43.4684 72.477 44.8028 73.8588L45.5797 73.1086C44.3114 71.7952 43.2557 70.3559 42.4116 68.8333L41.467 69.3569ZM44.8028 73.8588C46.9216 76.0528 49.3962 77.6973 52.0472 78.7877L52.4581 77.7889C49.9424 76.7542 47.593 75.1934 45.5797 73.1086L44.8028 73.8588ZM52.0472 78.7877C55.2706 80.1135 58.7534 80.6196 62.1737 80.3002L62.0733 79.2248C58.8251 79.5282 55.5179 79.0474 52.4581 77.7889L52.0472 78.7877ZM62.1737 80.3002C65.0446 80.0321 67.8723 79.1823 70.466 77.7468L69.943 76.8019C67.4826 78.1636 64.7992 78.9703 62.0733 79.2248L62.1737 80.3002Z" fill="#06857C"/>
<path d="M80.248 34.4399V37.0319" stroke="#A4C3FE" stroke-width="1.08" stroke-linecap="round" stroke-linejoin="round"/>
<path d="M80.248 40.4879V43.0799" stroke="#A4C3FE" stroke-width="1.08" stroke-linecap="round" stroke-linejoin="round"/>
<path d="M75.928 38.76H78.52" stroke="#A4C3FE" stroke-width="1.08" stroke-linecap="round" stroke-linejoin="round"/>
<path d="M81.976 38.76H84.568" stroke="#A4C3FE" stroke-width="1.08" stroke-linecap="round" stroke-linejoin="round"/>
<path d="M44.392 78.936V80.664" stroke="#A4C3FE" stroke-width="1.08" stroke-linecap="round" stroke-linejoin="round"/>
<path d="M44.392 84.1201V85.8481" stroke="#A4C3FE" stroke-width="1.08" stroke-linecap="round" stroke-linejoin="round"/>
<path d="M40.936 82.392H42.664" stroke="#A4C3FE" stroke-width="1.08" stroke-linecap="round" stroke-linejoin="round"/>
<path d="M46.12 82.392H47.848" stroke="#A4C3FE" stroke-width="1.08" stroke-linecap="round" stroke-linejoin="round"/>
<path fill-rule="evenodd" clip-rule="evenodd" d="M53.7588 42.0868C52.878 42.4172 52.0177 42.8187 51.1865 43.2915C49.895 44.0262 48.6739 44.9329 47.5561 46.0123C47.0979 46.4548 46.6681 46.9156 46.2668 47.3925M45.0248 49.0531C44.7057 49.5353 44.412 50.0297 44.1437 50.5343C43.9456 50.907 43.7614 51.2852 43.5911 51.6683" fill="#06857C"/>
<path d="M53.9485 42.5924C54.2277 42.4876 54.3692 42.1763 54.2644 41.8971C54.1596 41.6179 53.8484 41.4765 53.5691 41.5812L53.9485 42.5924ZM51.1865 43.2915L51.4535 43.7609L51.1865 43.2915ZM47.5561 46.0123L47.181 45.6238L47.5561 46.0123ZM45.8536 47.0448C45.6616 47.273 45.6909 47.6137 45.9191 47.8057C46.1473 47.9977 46.4879 47.9684 46.6799 47.7402L45.8536 47.0448ZM45.4751 49.3511C45.6397 49.1024 45.5715 48.7673 45.3228 48.6027C45.0741 48.4381 44.7391 48.5063 44.5745 48.755L45.4751 49.3511ZM44.1437 50.5343L44.6205 50.7878L44.1437 50.5343ZM43.0977 51.4489C42.9765 51.7214 43.0992 52.0406 43.3717 52.1617C43.6442 52.2829 43.9633 52.1602 44.0845 51.8877L43.0977 51.4489ZM53.5691 41.5812C52.6619 41.9216 51.7757 42.3351 50.9196 42.8221L51.4535 43.7609C52.2597 43.3023 53.0942 42.9129 53.9485 42.5924L53.5691 41.5812ZM50.9196 42.8221C49.589 43.5789 48.3316 44.5128 47.181 45.6238L47.9312 46.4007C49.0162 45.353 50.2009 44.4734 51.4535 43.7609L50.9196 42.8221ZM47.181 45.6238C46.7094 46.0792 46.2669 46.5537 45.8536 47.0448L46.6799 47.7402C47.0693 47.2775 47.4864 46.8303 47.9312 46.4007L47.181 45.6238ZM44.5745 48.755C44.2457 49.2518 43.9432 49.7611 43.6669 50.2808L44.6205 50.7878C44.8807 50.2984 45.1656 49.8188 45.4751 49.3511L44.5745 48.755ZM43.6669 50.2808C43.4628 50.6647 43.2731 51.0544 43.0977 51.4489L44.0845 51.8877C44.2497 51.5161 44.4284 51.1493 44.6205 50.7878L43.6669 50.2808Z" fill="#A4C3FE"/>
<path d="M51.9434 58.7912C51.3143 58.2245 50.3384 58.268 49.7637 58.8884C49.189 59.5087 49.2332 60.4711 49.8623 61.0378L57.1235 67.5786C58.0042 68.372 59.3705 68.3111 60.1751 67.4425C60.2087 67.4057 60.2087 67.4057 60.2412 67.3678L70.6034 55.0781C71.1482 54.432 71.0587 53.4728 70.4035 52.9356C69.7483 52.3984 68.7755 52.4867 68.2307 53.1327L58.4885 64.687L51.9434 58.7912Z" fill="#06857C" stroke="#06857C" stroke-width="1.08"/>
</svg>
