<svg width="116" height="116" viewBox="0 0 116 116" fill="none" xmlns="http://www.w3.org/2000/svg">
<circle cx="58" cy="58" r="58" fill="#F4F8FC"/>
<path d="M92.9984 31.5044V39.5752H92.7874V39.4892H22.211V39.5752H22V31.5044C22.0009 30.5753 22.368 29.6844 23.0207 29.0274C23.6733 28.3704 24.5583 28.0009 25.4813 28H89.5171C90.4401 28.0009 91.3251 28.3704 91.9778 29.0274C92.6304 29.6844 92.9975 30.5753 92.9984 31.5044Z" fill="#06857C"/>
<path d="M89.5171 28H25.4813C24.5583 28.0009 23.6733 28.3704 23.0207 29.0274C22.368 29.6844 22.0009 30.5753 22 31.5044V77.5929C22.0009 78.5221 22.368 79.4129 23.0207 80.0699C23.6733 80.7269 24.5583 81.0964 25.4813 81.0973H89.5171C90.4401 81.0964 91.3251 80.7269 91.9778 80.0699C92.6304 79.4129 92.9975 78.5221 92.9984 77.5929V31.5044C92.9975 30.5753 92.6304 29.6844 91.9778 29.0274C91.3251 28.3704 90.4401 28.0009 89.5171 28ZM92.7874 77.5929C92.7863 78.4657 92.4414 79.3024 91.8283 79.9195C91.2153 80.5367 90.3841 80.8838 89.5171 80.885H25.4813C24.6143 80.8838 23.7831 80.5367 23.1701 79.9195C22.557 79.3024 22.2121 78.4657 22.211 77.5929V31.5044C22.2121 30.6317 22.557 29.795 23.1701 29.1778C23.7831 28.5607 24.6143 28.2135 25.4813 28.2124H89.5171C90.3841 28.2135 91.2153 28.5607 91.8283 29.1778C92.4414 29.795 92.7863 30.6317 92.7874 31.5044V77.5929Z" fill="#3F3D56"/>
<path d="M36.3474 35.9116C37.5127 35.9116 38.4573 34.9607 38.4573 33.7877C38.4573 32.6147 37.5127 31.6638 36.3474 31.6638C35.1821 31.6638 34.2375 32.6147 34.2375 33.7877C34.2375 34.9607 35.1821 35.9116 36.3474 35.9116Z" fill="white"/>
<path d="M78.6511 35.9116C79.8163 35.9116 80.761 34.9607 80.761 33.7877C80.761 32.6147 79.8163 31.6638 78.6511 31.6638C77.4858 31.6638 76.5412 32.6147 76.5412 33.7877C76.5412 34.9607 77.4858 35.9116 78.6511 35.9116Z" fill="white"/>
<path d="M42.4434 57.4693H29.8919C29.3602 57.4687 28.8504 57.2558 28.4744 56.8773C28.0984 56.4988 27.8869 55.9856 27.8863 55.4504V49.4788C27.8869 48.9435 28.0984 48.4303 28.4744 48.0518C28.8504 47.6733 29.3602 47.4604 29.8919 47.4598H42.4434C42.9751 47.4604 43.4849 47.6733 43.8609 48.0518C44.2369 48.4303 44.4484 48.9435 44.449 49.4788V55.4504C44.4484 55.9856 44.2369 56.4988 43.8609 56.8773C43.4849 57.2558 42.9751 57.4687 42.4434 57.4693Z" fill="#06857C"/>
<path d="M63.7955 57.4693H51.2441C50.7123 57.4687 50.2025 57.2558 49.8266 56.8773C49.4506 56.4988 49.2391 55.9856 49.2385 55.4504V49.4788C49.2391 48.9435 49.4506 48.4303 49.8266 48.0518C50.2025 47.6733 50.7123 47.4604 51.2441 47.4598H63.7955C64.3273 47.4604 64.8371 47.6733 65.213 48.0518C65.589 48.4303 65.8005 48.9435 65.8011 49.4788V55.4504C65.8005 55.9856 65.589 56.4988 65.213 56.8773C64.8371 57.2558 64.3273 57.4687 63.7955 57.4693Z" fill="#06857C"/>
<path d="M63.7955 72.8985H51.2441C50.6962 72.8978 50.171 72.6785 49.7836 72.2885C49.3962 71.8986 49.1783 71.3698 49.1777 70.8184V64.8467C49.1783 64.2952 49.3962 63.7665 49.7836 63.3765C50.171 62.9866 50.6962 62.7672 51.2441 62.7666H63.7955C64.3434 62.7672 64.8686 62.9866 65.256 63.3765C65.6434 63.7665 65.8613 64.2952 65.8619 64.8467V70.8184C65.8613 71.3698 65.6434 71.8986 65.256 72.2885C64.8686 72.6785 64.3434 72.8978 63.7955 72.8985Z" fill="#F2F2F2"/>
<path d="M42.4022 72.8985H29.8508C29.3029 72.8978 28.7777 72.6785 28.3903 72.2885C28.0029 71.8986 27.785 71.3698 27.7844 70.8184V64.8467C27.785 64.2952 28.0029 63.7665 28.3903 63.3765C28.7777 62.9866 29.3029 62.7672 29.8508 62.7666H42.4022C42.9501 62.7672 43.4753 62.9866 43.8627 63.3765C44.2501 63.7665 44.468 64.2952 44.4686 64.8467V70.8184C44.468 71.3698 44.2501 71.8986 43.8627 72.2885C43.4753 72.6785 42.9501 72.8978 42.4022 72.8985Z" fill="#F2F2F2"/>
<path d="M85.1476 72.8985H72.5962C72.0483 72.8978 71.5231 72.6785 71.1357 72.2885C70.7483 71.8986 70.5304 71.3698 70.5298 70.8184V64.8467C70.5304 64.2952 70.7483 63.7665 71.1357 63.3765C71.5231 62.9866 72.0483 62.7672 72.5962 62.7666H85.1476C85.6955 62.7672 86.2207 62.9866 86.6081 63.3765C86.9955 63.7665 87.2134 64.2952 87.214 64.8467V70.8184C87.2134 71.3698 86.9955 71.8986 86.6081 72.2885C86.2207 72.6785 85.6955 72.8978 85.1476 72.8985Z" fill="#F2F2F2"/>
<path d="M85.1476 57.4812H72.5962C72.0483 57.4806 71.5231 57.2612 71.1357 56.8713C70.7483 56.4813 70.5304 55.9526 70.5298 55.4011V49.4295C70.5304 48.878 70.7483 48.3493 71.1357 47.9593C71.5231 47.5693 72.0483 47.35 72.5962 47.3494H85.1476C85.6955 47.35 86.2207 47.5693 86.6081 47.9593C86.9955 48.3493 87.2134 48.878 87.214 49.4295V55.4011C87.2134 55.9526 86.9955 56.4813 86.6081 56.8713C86.2207 57.2612 85.6955 57.4806 85.1476 57.4812Z" fill="#F2F2F2"/>
<path d="M36.1677 55.8905C38.0474 55.8905 39.5711 54.3566 39.5711 52.4645C39.5711 50.5723 38.0474 49.0385 36.1677 49.0385C34.288 49.0385 32.7642 50.5723 32.7642 52.4645C32.7642 54.3566 34.288 55.8905 36.1677 55.8905Z" fill="white"/>
<path d="M35.8303 53.7715C35.7537 53.7717 35.6792 53.7467 35.6179 53.7005L35.6141 53.6976L34.8143 53.0812C34.7772 53.0526 34.746 53.017 34.7226 52.9763C34.6992 52.9357 34.684 52.8907 34.6779 52.8441C34.6717 52.7975 34.6748 52.7502 34.6868 52.7048C34.6988 52.6594 34.7197 52.6168 34.7481 52.5795C34.7765 52.5422 34.8119 52.5108 34.8523 52.4873C34.8927 52.4638 34.9374 52.4485 34.9837 52.4424C35.03 52.4362 35.077 52.4393 35.1221 52.4515C35.1672 52.4637 35.2095 52.4847 35.2465 52.5133L35.7646 52.9132L36.9889 51.3059C37.0173 51.2687 37.0527 51.2374 37.0931 51.2139C37.1335 51.1904 37.1781 51.1751 37.2244 51.169C37.2707 51.1628 37.3177 51.1659 37.3627 51.1781C37.4078 51.1902 37.4501 51.2112 37.4871 51.2397L37.4795 51.2501L37.4873 51.2399C37.562 51.2977 37.6109 51.3829 37.6232 51.477C37.6355 51.571 37.6103 51.6661 37.5531 51.7414L36.113 53.6319C36.0797 53.6755 36.0369 53.7107 35.9879 53.7349C35.9388 53.7592 35.8849 53.7717 35.8303 53.7715Z" fill="#6C63FF"/>
<path d="M57.5806 55.8413C59.4603 55.8413 60.9841 54.3074 60.9841 52.4153C60.9841 50.5231 59.4603 48.9893 57.5806 48.9893C55.7009 48.9893 54.1771 50.5231 54.1771 52.4153C54.1771 54.3074 55.7009 55.8413 57.5806 55.8413Z" fill="white"/>
<path d="M57.2432 53.7222C57.1666 53.7223 57.0921 53.6974 57.0308 53.6512L57.027 53.6483L56.2272 53.0319C56.1524 52.9742 56.1034 52.8889 56.091 52.7949C56.0787 52.7008 56.1039 52.6057 56.1612 52.5304C56.2186 52.4551 56.3032 52.4058 56.3967 52.3933C56.4901 52.3809 56.5846 52.4063 56.6594 52.464L57.1775 52.8639L58.4018 51.2566C58.4302 51.2193 58.4656 51.1881 58.506 51.1646C58.5464 51.1411 58.591 51.1258 58.6373 51.1197C58.6836 51.1135 58.7306 51.1166 58.7756 51.1287C58.8207 51.1409 58.863 51.1618 58.9 51.1904L58.8924 51.2008L58.9002 51.1906C58.9749 51.2484 59.0238 51.3336 59.0361 51.4276C59.0484 51.5217 59.0232 51.6168 58.966 51.6921L57.5259 53.5826C57.4926 53.6262 57.4498 53.6614 57.4008 53.6856C57.3517 53.7098 57.2978 53.7223 57.2432 53.7222Z" fill="#6C63FF"/>
<path d="M80.5829 68.5823C80.6947 68.4592 80.7784 68.313 80.828 68.1538C80.8775 67.9947 80.8919 67.8265 80.8699 67.6612C80.8479 67.4959 80.7902 67.3375 80.7009 67.197C80.6115 67.0566 80.4926 66.9376 80.3526 66.8484L78.4525 56.6354L76.1417 57.498L78.7361 67.2658C78.6028 67.5125 78.5641 67.7998 78.6272 68.0733C78.6903 68.3468 78.851 68.5875 79.0786 68.7498C79.3062 68.9121 79.5851 68.9846 79.8624 68.9538C80.1396 68.9229 80.396 68.7907 80.5829 68.5823Z" fill="#A0616A"/>
<path d="M62.1439 52.9983C62.1496 53.0617 62.1504 53.1255 62.1462 53.189L66.6393 56.67L67.9134 56.1434L68.9543 57.9751L66.7887 59.1282C66.6138 59.2213 66.4135 59.2548 66.2181 59.2237C66.0226 59.1925 65.8424 59.0984 65.7046 58.9553L61.2136 54.2945C60.9758 54.3485 60.7274 54.3284 60.5013 54.2367C60.2753 54.1451 60.0823 53.9864 59.948 53.7817C59.8138 53.5769 59.7446 53.3359 59.7497 53.0906C59.7549 52.8454 59.8341 52.6075 59.9768 52.4087C60.1195 52.2098 60.319 52.0594 60.5487 51.9775C60.7784 51.8955 61.0274 51.8859 61.2627 51.9499C61.4979 52.0139 61.7083 52.1485 61.8657 52.3358C62.0231 52.5231 62.1201 52.7542 62.1439 52.9983H62.1439Z" fill="#A0616A"/>
<path d="M72.6408 86.7097H71.3475L70.7321 82.7499L72.6411 82.75L72.6408 86.7097Z" fill="#A0616A"/>
<path d="M72.9706 87.9717L68.8004 87.9716V87.9185C68.8004 87.7039 68.8423 87.4914 68.9239 87.2932C69.0055 87.0949 69.125 86.9148 69.2758 86.7631C69.4265 86.6114 69.6054 86.491 69.8024 86.4089C69.9993 86.3268 70.2104 86.2845 70.4236 86.2845H70.4237L72.9707 86.2846L72.9706 87.9717Z" fill="#2F2E41"/>
<path d="M77.4936 86.7097H76.2003L75.5849 82.7499L77.4939 82.75L77.4936 86.7097Z" fill="#A0616A"/>
<path d="M77.8234 87.9717L73.6532 87.9716V87.9185C73.6531 87.7039 73.6951 87.4914 73.7767 87.2932C73.8583 87.0949 73.9778 86.9148 74.1286 86.7631C74.2793 86.6114 74.4582 86.491 74.6552 86.4089C74.8521 86.3268 75.0632 86.2845 75.2764 86.2845H75.2765L77.8235 86.2846L77.8234 87.9717Z" fill="#2F2E41"/>
<path d="M71.0789 85.927C70.9608 85.9271 70.847 85.8828 70.7597 85.8028C70.6723 85.7228 70.6178 85.6128 70.6068 85.4945L69.4798 70.2354L69.533 70.2311L77.2892 69.5894L77.2912 69.6448L77.9078 85.452C77.9102 85.5162 77.8997 85.5802 77.8769 85.6403C77.8542 85.7003 77.8196 85.7551 77.7753 85.8014C77.731 85.8477 77.6779 85.8845 77.6192 85.9096C77.5604 85.9347 77.4972 85.9477 77.4334 85.9477H75.9126C75.7991 85.9482 75.6892 85.9076 75.603 85.8332C75.5168 85.7587 75.4602 85.6556 75.4434 85.5425L73.3782 72.7731C73.3762 72.7599 73.3693 72.748 73.359 72.7397C73.3486 72.7314 73.3355 72.7273 73.3223 72.7283C73.3091 72.7292 73.2967 72.7352 73.2876 72.7449C73.2786 72.7546 73.2735 72.7675 73.2734 72.7808L73.1797 85.3886C73.1787 85.5104 73.1316 85.6272 73.0481 85.7152C72.9645 85.8033 72.8507 85.8559 72.7299 85.8625L71.1044 85.9262C71.0959 85.9267 71.0873 85.927 71.0789 85.927Z" fill="#2F2E41"/>
<path d="M72.4028 50.9514C73.8338 50.9514 74.9938 49.7836 74.9938 48.3431C74.9938 46.9026 73.8338 45.7349 72.4028 45.7349C70.9717 45.7349 69.8117 46.9026 69.8117 48.3431C69.8117 49.7836 70.9717 50.9514 72.4028 50.9514Z" fill="#A0616A"/>
<path d="M72.9044 71.2088C71.7718 71.2054 70.6448 71.0503 69.5529 70.7477C69.4479 70.7169 69.3565 70.6506 69.2944 70.5599C69.2322 70.4693 69.2029 70.3598 69.2116 70.25C69.5604 64.9728 69.6424 60.8776 68.9089 58.0441C68.5963 56.8364 68.7382 55.5645 69.2983 54.5546C70.1412 53.0346 71.6905 52.1095 73.343 52.1414C73.422 52.1429 73.5017 52.1458 73.5823 52.1499C76.0902 52.2799 78.0445 54.5638 77.9386 57.2411L77.4342 70.0024C77.4323 70.0955 77.4031 70.1859 77.3503 70.2624C77.2974 70.3388 77.2233 70.3977 77.1372 70.4318C75.7839 70.9443 74.3502 71.2074 72.9044 71.2088Z" fill="#3F3D56"/>
<path d="M69.3353 59.0237L67.3944 56.6296C67.3392 56.5615 67.2992 56.4822 67.2772 56.3971C67.2552 56.312 67.2516 56.2232 67.2668 56.1366C67.2819 56.05 67.3154 55.9677 67.365 55.8954C67.4146 55.823 67.4791 55.7622 67.5542 55.7172L70.1833 54.1402C70.5311 53.8577 70.976 53.7256 71.4205 53.7728C71.8649 53.8201 72.2726 54.0428 72.5542 54.3922C72.8357 54.7416 72.9681 55.1891 72.9224 55.6366C72.8766 56.0841 72.6564 56.4951 72.3101 56.7794L70.2553 59.0491C70.1965 59.1141 70.1244 59.1655 70.044 59.1999C69.9636 59.2343 69.8768 59.2509 69.7895 59.2485C69.7022 59.2461 69.6164 59.2248 69.5381 59.186C69.4597 59.1472 69.3905 59.0918 69.3353 59.0237Z" fill="#3F3D56"/>
<path d="M75.4408 58.7234C75.3611 58.6875 75.29 58.6347 75.2324 58.5686C75.1748 58.5025 75.132 58.4247 75.107 58.3404L74.2333 55.3983C74.0437 54.9909 74.0222 54.5244 74.1738 54.1011C74.3253 53.6778 74.6375 53.3323 75.0417 53.1404C75.446 52.9485 75.9093 52.9258 76.3302 53.0773C76.7511 53.2288 77.0951 53.5421 77.2867 53.9486L78.9764 56.5172C79.0246 56.5905 79.0565 56.6735 79.0701 56.7603C79.0836 56.8472 79.0783 56.936 79.0547 57.0206C79.0311 57.1052 78.9896 57.1838 78.9331 57.2508C78.8766 57.3178 78.8064 57.3718 78.7273 57.4091L75.947 58.7192C75.8679 58.7565 75.7817 58.7762 75.6944 58.7769C75.607 58.7776 75.5205 58.7594 75.4408 58.7234Z" fill="#3F3D56"/>
<path d="M73.6832 50.4832L71.7625 50.0407C71.5644 49.9951 71.3264 49.908 71.2989 49.7053C71.262 49.4329 71.6514 49.2431 71.6155 48.9706C71.5807 48.7066 71.2259 48.6726 70.973 48.5947C70.7374 48.5115 70.5432 48.3393 70.4315 48.1145C70.3198 47.8897 70.2994 47.63 70.3746 47.3904C70.1009 47.7786 69.4756 47.8119 69.1206 47.4973C68.7656 47.1828 68.6975 46.6121 68.9107 46.1871C69.0259 45.9784 69.1884 45.8 69.3849 45.6664C69.5815 45.5328 69.8067 45.4477 70.042 45.4182C70.5153 45.3642 70.9938 45.454 71.4159 45.676C71.444 45.3752 71.8172 45.2532 72.1175 45.2505C72.7411 45.2578 73.347 45.4606 73.8507 45.8308C74.3545 46.2009 74.7311 46.7199 74.9282 47.3156C75.2966 48.5105 75.0502 49.8203 74.0194 50.5195L73.6832 50.4832Z" fill="#2F2E41"/>
<path d="M93.0288 88H52.835C52.807 88 52.7802 87.9888 52.7604 87.9689C52.7406 87.949 52.7295 87.922 52.7295 87.8938C52.7295 87.8656 52.7406 87.8386 52.7604 87.8187C52.7802 87.7988 52.807 87.7876 52.835 87.7876H93.0288C93.0567 87.7876 93.0836 87.7988 93.1033 87.8187C93.1231 87.8386 93.1342 87.8656 93.1342 87.8938C93.1342 87.922 93.1231 87.949 93.1033 87.9689C93.0836 87.9888 93.0567 88 93.0288 88Z" fill="#3F3D56"/>
</svg>
