<svg width="116" height="116" viewBox="0 0 116 116" fill="none" xmlns="http://www.w3.org/2000/svg">
<circle cx="58" cy="58" r="58" fill="#F4F8FC"/>
<path d="M57.2918 39.1315H56.9196V28.9138C56.9196 27.3453 56.2978 25.8412 55.1911 24.7321C54.0843 23.6231 52.5832 23 51.018 23H29.4147C28.6396 23 27.8722 23.153 27.1562 23.4502C26.4402 23.7473 25.7896 24.1829 25.2416 24.7321C24.6935 25.2812 24.2588 25.9332 23.9622 26.6506C23.6657 27.3681 23.513 28.1371 23.513 28.9137V84.9692C23.513 85.7458 23.6656 86.5148 23.9622 87.2323C24.2588 87.9498 24.6935 88.6018 25.2415 89.1509C25.7896 89.7 26.4401 90.1356 27.1562 90.4328C27.8722 90.73 28.6396 90.883 29.4146 90.883H51.018C51.793 90.883 52.5604 90.73 53.2764 90.4328C53.9924 90.1357 54.643 89.7001 55.1911 89.1509C55.7391 88.6018 56.1738 87.9498 56.4704 87.2324C56.767 86.5149 56.9196 85.7459 56.9196 84.9693V46.4047H57.2918V39.1315Z" fill="#3F3D56"/>
<path d="M51.2116 24.6785H48.3917C48.5214 24.9971 48.5709 25.3427 48.5358 25.685C48.5008 26.0273 48.3823 26.3557 48.1908 26.6412C47.9992 26.9268 47.7406 27.1608 47.4375 27.3226C47.1345 27.4844 46.7964 27.5691 46.453 27.5691H34.0768C33.7334 27.5691 33.3953 27.4844 33.0923 27.3226C32.7892 27.1608 32.5306 26.9268 32.339 26.6412C32.1475 26.3557 32.029 26.0273 31.994 25.685C31.9589 25.3427 32.0084 24.9971 32.1381 24.6785H29.5043C28.3354 24.6785 27.2144 25.1438 26.3879 25.972C25.5613 26.8002 25.097 27.9235 25.097 29.0948V85.068C25.097 85.648 25.211 86.2223 25.4325 86.7581C25.654 87.2939 25.9786 87.7807 26.3878 88.1908C26.7971 88.6009 27.283 88.9262 27.8177 89.1482C28.3524 89.3701 28.9255 89.4844 29.5043 89.4844H51.2116C52.3805 89.4844 53.5015 89.0191 54.328 88.1908C55.1546 87.3626 55.6189 86.2393 55.6189 85.068V29.0948C55.6189 28.5148 55.5049 27.9406 55.2834 27.4047C55.0619 26.8689 54.7373 26.3821 54.3281 25.972C53.9188 25.5619 53.4329 25.2366 52.8982 25.0146C52.3635 24.7927 51.7904 24.6785 51.2116 24.6785H51.2116ZM50.7379 50.6448C50.737 50.9479 50.6164 51.2384 50.4025 51.4527C50.1886 51.667 49.8988 51.7878 49.5963 51.7887H44.0787C43.7762 51.7878 43.4863 51.667 43.2724 51.4527C43.0585 51.2384 42.938 50.9479 42.9371 50.6448V50.3588C42.938 50.0557 43.0585 49.7653 43.2724 49.5509C43.4863 49.3366 43.7762 49.2158 44.0787 49.2149H49.5963C49.8988 49.2158 50.1886 49.3366 50.4025 49.5509C50.6164 49.7653 50.737 50.0557 50.7379 50.3588V50.6448ZM51.3562 45.5925C51.3553 45.8956 51.2348 46.186 51.0209 46.4004C50.807 46.6147 50.5171 46.7355 50.2146 46.7364H30.4273C30.1248 46.7355 29.835 46.6147 29.6211 46.4004C29.4072 46.186 29.2866 45.8956 29.2858 45.5925V45.3065C29.2866 45.0034 29.4072 44.7129 29.6211 44.4986C29.835 44.2843 30.1248 44.1635 30.4273 44.1626H50.2146C50.5171 44.1635 50.807 44.2843 51.0209 44.4986C51.2348 44.7129 51.3553 45.0034 51.3562 45.3065V45.5925ZM51.3562 40.5402C51.3553 40.8433 51.2348 41.1337 51.0209 41.3481C50.807 41.5624 50.5171 41.6832 50.2146 41.6841H30.4273C30.1248 41.6832 29.835 41.5624 29.6211 41.3481C29.4072 41.1337 29.2866 40.8433 29.2858 40.5402V40.2542C29.2866 39.9511 29.4072 39.6606 29.6211 39.4463C29.835 39.232 30.1248 39.1111 30.4273 39.1103H50.2146C50.5171 39.1112 50.807 39.232 51.0209 39.4463C51.2348 39.6606 51.3553 39.9511 51.3562 40.2542V40.5402ZM51.3562 35.4878C51.3553 35.791 51.2348 36.0814 51.0209 36.2957C50.807 36.5101 50.5171 36.6309 50.2146 36.6318H30.4273C30.1248 36.6309 29.835 36.5101 29.6211 36.2957C29.4072 36.0814 29.2866 35.791 29.2858 35.4878V35.2019C29.2866 34.8988 29.4072 34.6083 29.6211 34.394C29.835 34.1796 30.1248 34.0588 30.4273 34.0579H50.2146C50.5171 34.0588 50.807 34.1796 51.0209 34.394C51.2348 34.6083 51.3553 34.8988 51.3562 35.2019V35.4878Z" fill="white"/>
<path d="M30.8554 46.1644C31.2232 46.1644 31.5214 45.8657 31.5214 45.4971C31.5214 45.1286 31.2232 44.8298 30.8554 44.8298C30.4877 44.8298 30.1895 45.1286 30.1895 45.4971C30.1895 45.8657 30.4877 46.1644 30.8554 46.1644Z" fill="white"/>
<path d="M33.0434 46.1644C33.4112 46.1644 33.7093 45.8657 33.7093 45.4971C33.7093 45.1286 33.4112 44.8298 33.0434 44.8298C32.6756 44.8298 32.3775 45.1286 32.3775 45.4971C32.3775 45.8657 32.6756 46.1644 33.0434 46.1644Z" fill="white"/>
<path d="M35.2315 46.1644C35.5992 46.1644 35.8974 45.8657 35.8974 45.4971C35.8974 45.1286 35.5992 44.8298 35.2315 44.8298C34.8637 44.8298 34.5656 45.1286 34.5656 45.4971C34.5656 45.8657 34.8637 46.1644 35.2315 46.1644Z" fill="white"/>
<path d="M37.4195 46.1644C37.7873 46.1644 38.0854 45.8657 38.0854 45.4971C38.0854 45.1286 37.7873 44.8298 37.4195 44.8298C37.0517 44.8298 36.7536 45.1286 36.7536 45.4971C36.7536 45.8657 37.0517 46.1644 37.4195 46.1644Z" fill="white"/>
<path d="M44.5543 51.2168C44.9221 51.2168 45.2203 50.918 45.2203 50.5495C45.2203 50.181 44.9221 49.8822 44.5543 49.8822C44.1866 49.8822 43.8884 50.181 43.8884 50.5495C43.8884 50.918 44.1866 51.2168 44.5543 51.2168Z" fill="white"/>
<path d="M46.7423 51.2168C47.1101 51.2168 47.4083 50.918 47.4083 50.5495C47.4083 50.181 47.1101 49.8822 46.7423 49.8822C46.3746 49.8822 46.0764 50.181 46.0764 50.5495C46.0764 50.918 46.3746 51.2168 46.7423 51.2168Z" fill="white"/>
<path d="M48.9304 51.2168C49.2982 51.2168 49.5963 50.918 49.5963 50.5495C49.5963 50.181 49.2982 49.8822 48.9304 49.8822C48.5626 49.8822 48.2645 50.181 48.2645 50.5495C48.2645 50.918 48.5626 51.2168 48.9304 51.2168Z" fill="white"/>
<path d="M51.5093 59.1953H28.9424C28.4123 59.1953 27.9038 59.4064 27.5289 59.782C27.154 60.1577 26.9434 60.6672 26.9434 61.1984V72.2161C26.9434 72.7473 27.154 73.2569 27.5289 73.6325C27.9038 74.0082 28.4123 74.2192 28.9424 74.2192H51.5093C52.0395 74.2192 52.548 74.0082 52.9229 73.6325C53.2978 73.2569 53.5084 72.7474 53.5084 72.2161V61.1984C53.5084 60.6672 53.2978 60.1577 52.9229 59.782C52.548 59.4064 52.0395 59.1953 51.5093 59.1953H51.5093ZM28.3841 60.5618C28.4287 60.5537 29.4854 60.3735 30.3604 60.9011C31.2353 61.4286 31.5715 62.4486 31.5854 62.4917L31.6208 62.6017L31.5072 62.6219C31.3452 62.6472 31.1814 62.6593 31.0175 62.6579C30.4974 62.6679 29.9841 62.5383 29.5309 62.2825C28.6559 61.7551 28.3198 60.7351 28.3059 60.6919L28.2706 60.5819L28.3841 60.5618ZM33.2828 70.7909H29.2578C28.9642 70.7909 28.6827 70.6741 28.4751 70.4661C28.2675 70.2581 28.1509 69.976 28.1509 69.6818C28.1509 69.3876 28.2675 69.1055 28.4751 68.8975C28.6827 68.6895 28.9642 68.5726 29.2578 68.5726H33.2828C33.5763 68.5726 33.8579 68.6895 34.0655 68.8975C34.273 69.1055 34.3897 69.3876 34.3897 69.6818C34.3897 69.976 34.273 70.2581 34.0655 70.4661C33.8579 70.6741 33.5763 70.7909 33.2828 70.7909ZM51.5965 70.5893C51.5956 70.9099 51.468 71.2171 51.2418 71.4438C51.0155 71.6705 50.709 71.7983 50.389 71.7993H47.3703C47.0503 71.7983 46.7437 71.6705 46.5175 71.4438C46.2912 71.2171 46.1637 70.9099 46.1628 70.5893V68.7743C46.1637 68.4537 46.2912 68.1465 46.5175 67.9198C46.7437 67.6931 47.0503 67.5653 47.3703 67.5643H50.389C50.709 67.5653 51.0155 67.6931 51.2418 67.9198C51.468 68.1465 51.5956 68.4537 51.5965 68.7743L51.5965 70.5893Z" fill="#06857C"/>
<path d="M48.3436 70.2153H47.1298C47.0432 70.2153 46.96 70.2498 46.8987 70.3112C46.8375 70.3727 46.803 70.4559 46.803 70.5428C46.803 70.6296 46.8375 70.7129 46.8987 70.7743C46.96 70.8357 47.0432 70.8702 47.1298 70.8702H48.3436C48.4302 70.8702 48.5134 70.8357 48.5746 70.7743C48.6359 70.7129 48.6703 70.6296 48.6703 70.5428C48.6703 70.4559 48.6359 70.3727 48.5746 70.3112C48.5134 70.2498 48.4302 70.2153 48.3436 70.2153Z" fill="#3F3D56"/>
<path d="M50.5843 70.2153H49.3705C49.2839 70.2153 49.2008 70.2498 49.1395 70.3112C49.0782 70.3727 49.0438 70.4559 49.0438 70.5428C49.0438 70.6296 49.0782 70.7129 49.1395 70.7743C49.2008 70.8357 49.2839 70.8702 49.3705 70.8702H50.5843C50.671 70.8702 50.7541 70.8357 50.8154 70.7743C50.8766 70.7129 50.9111 70.6296 50.9111 70.5428C50.9111 70.4559 50.8766 70.3727 50.8154 70.3112C50.7541 70.2498 50.671 70.2153 50.5843 70.2153Z" fill="#3F3D56"/>
<path d="M48.3434 69.291H47.1296C47.043 69.291 46.9598 69.3255 46.8986 69.3869C46.8373 69.4483 46.8029 69.5316 46.8029 69.6185C46.8029 69.7053 46.8373 69.7886 46.8986 69.85C46.9598 69.9114 47.043 69.9459 47.1296 69.9459H48.3434C48.4301 69.9459 48.5132 69.9114 48.5745 69.85C48.6357 69.7886 48.6702 69.7053 48.6702 69.6185C48.6702 69.5316 48.6357 69.4483 48.5745 69.3869C48.5132 69.3255 48.4301 69.291 48.3434 69.291Z" fill="#3F3D56"/>
<path d="M50.5842 69.291H49.3704C49.2838 69.291 49.2006 69.3255 49.1394 69.3869C49.0781 69.4483 49.0436 69.5316 49.0436 69.6185C49.0436 69.7053 49.0781 69.7886 49.1394 69.85C49.2006 69.9114 49.2838 69.9459 49.3704 69.9459H50.5842C50.6708 69.9459 50.754 69.9114 50.8152 69.85C50.8765 69.7886 50.911 69.7053 50.911 69.6185C50.911 69.5316 50.8765 69.4483 50.8152 69.3869C50.754 69.3255 50.6708 69.291 50.5842 69.291H50.5842Z" fill="#3F3D56"/>
<path d="M48.3434 68.3854H47.1296C47.043 68.3854 46.9598 68.4199 46.8986 68.4813C46.8373 68.5427 46.8029 68.626 46.8029 68.7128C46.8029 68.7997 46.8373 68.883 46.8986 68.9444C46.9598 69.0058 47.043 69.0403 47.1296 69.0403H48.3434C48.4301 69.0403 48.5132 69.0058 48.5745 68.9444C48.6357 68.883 48.6702 68.7997 48.6702 68.7128C48.6702 68.626 48.6357 68.5427 48.5745 68.4813C48.5132 68.4199 48.4301 68.3854 48.3434 68.3854Z" fill="#3F3D56"/>
<path d="M50.5842 68.3854H49.3704C49.2838 68.3854 49.2006 68.4199 49.1394 68.4813C49.0781 68.5427 49.0436 68.626 49.0436 68.7128C49.0436 68.7997 49.0781 68.883 49.1394 68.9444C49.2006 69.0058 49.2838 69.0403 49.3704 69.0403H50.5842C50.6708 69.0403 50.754 69.0058 50.8152 68.9444C50.8765 68.883 50.911 68.7997 50.911 68.7128C50.911 68.626 50.8765 68.5427 50.8152 68.4813C50.754 68.4199 50.6708 68.3854 50.5842 68.3854H50.5842Z" fill="#3F3D56"/>
<path d="M67.1395 63.3457H64.196V66.2953H67.1395V63.3457Z" fill="#E6E6E6"/>
<path d="M60.7268 65.1365H65.5626V69.9822H60.7268V65.1365ZM65.3523 65.3472H60.9371V69.7715H65.3523V65.3472Z" fill="#3F3D56"/>
<path d="M15.9435 39.0118H13V41.9614H15.9435V39.0118Z" fill="#E6E6E6"/>
<path d="M19.4127 40.1706H14.5769V35.325H19.4127V40.1706ZM14.7872 39.96H19.2024V35.5356H14.7872V39.96Z" fill="#3F3D56"/>
<path d="M81.6549 92.6745H80.366L79.7529 87.6931H81.6551L81.6549 92.6745Z" fill="#FFB8B8"/>
<path d="M79.4454 92.3054H81.931V93.8736H77.8804C77.8804 93.4577 78.0453 93.0588 78.3388 92.7647C78.6323 92.4706 79.0304 92.3054 79.4454 92.3054Z" fill="#2F2E41"/>
<path d="M88.0675 92.6745H86.7786L86.1655 87.6931H88.0677L88.0675 92.6745Z" fill="#FFB8B8"/>
<path d="M85.8581 92.3054H88.3436V93.8736H84.2931C84.2931 93.4577 84.458 93.0588 84.7515 92.7647C85.0449 92.4706 85.443 92.3054 85.8581 92.3054Z" fill="#2F2E41"/>
<path d="M75.1895 74.8598C75.0968 74.7229 75.0352 74.5673 75.009 74.404C74.9827 74.2407 74.9926 74.0736 75.0378 73.9144C75.083 73.7553 75.1625 73.6081 75.2706 73.4831C75.3788 73.358 75.5129 73.2583 75.6637 73.1909L80.0449 61.0907L82.2007 62.2696L77.1983 73.833C77.2946 74.0943 77.2918 74.3819 77.1906 74.6413C77.0894 74.9007 76.8967 75.1139 76.6491 75.2405C76.4015 75.3671 76.1161 75.3982 75.8471 75.3281C75.5781 75.2579 75.3442 75.0913 75.1895 74.8598Z" fill="#FFB8B8"/>
<path d="M87.4092 77.1335C87.2659 77.0512 87.1425 76.9384 87.0474 76.8031C86.9524 76.6679 86.8881 76.5133 86.8591 76.3505C86.8301 76.1876 86.8371 76.0204 86.8796 75.8605C86.9221 75.7006 86.999 75.552 87.105 75.4252L85.7478 62.6252L88.2012 62.7376L88.7653 75.328C88.9661 75.5205 89.0895 75.7802 89.112 76.0579C89.1345 76.3355 89.0547 76.6117 88.8875 76.8343C88.7204 77.0568 88.4775 77.2102 88.2051 77.2654C87.9326 77.3205 87.6494 77.2736 87.4092 77.1335V77.1335Z" fill="#FFB8B8"/>
<path d="M83.4953 58.8495C84.9213 58.8495 86.0772 57.6911 86.0772 56.2622C86.0772 54.8333 84.9213 53.6749 83.4953 53.6749C82.0693 53.6749 80.9133 54.8333 80.9133 56.2622C80.9133 57.6911 82.0693 58.8495 83.4953 58.8495Z" fill="#FFB8B8"/>
<path d="M87.3927 74.2225H79.6085L79.6179 74.1618C79.6319 74.071 81.0052 65.0562 79.9923 62.1069C79.8907 61.8171 79.8996 61.4999 80.0174 61.2162C80.1352 60.9326 80.3535 60.7027 80.6304 60.5707H80.6304C82.0781 59.8875 84.8572 59.0463 87.2028 61.0878C87.548 61.3932 87.8175 61.7748 87.9901 62.2026C88.1627 62.6303 88.2336 63.0925 88.1972 63.5524L87.3927 74.2225Z" fill="#CCCCCC"/>
<path d="M81.1035 66.3883L77.599 65.6759L79.2417 61.7751C79.34 61.3973 79.5838 61.074 79.9197 60.8761C80.2556 60.6782 80.6561 60.6218 81.0334 60.7194C81.4107 60.817 81.7339 61.0606 81.9322 61.3967C82.1305 61.7328 82.1877 62.134 82.0912 62.5123L81.1035 66.3883Z" fill="#CCCCCC"/>
<path d="M85.592 67.7112L85.3813 62.8717C85.2215 61.9619 85.7412 61.1019 86.5405 60.9614C87.3401 60.8213 88.1207 61.4523 88.2812 62.3687L89.0731 66.8908L85.592 67.7112Z" fill="#CCCCCC"/>
<path d="M87.1337 73.6431C88.3862 78.4231 88.5229 84.5005 88.1849 91.1297L86.5029 90.919L83.4543 78.2781L81.7723 91.1297L79.8801 91.0244C79.3148 84.0687 78.7643 78.0974 79.6698 74.1698L87.1337 73.6431Z" fill="#2F2E41"/>
<path d="M85.1966 58.2618C84.7149 58.7759 83.8204 58.4999 83.7576 57.7975C83.7527 57.743 83.753 57.6881 83.7587 57.6336C83.7911 57.3225 83.9705 57.04 83.9275 56.7115C83.9178 56.6297 83.8874 56.5518 83.8392 56.4851C83.4553 55.9701 82.5543 56.7155 82.192 56.2492C81.9699 55.9633 82.231 55.5132 82.0606 55.1937C81.8356 54.7719 81.1692 54.98 80.7514 54.749C80.2864 54.492 80.3142 53.7772 80.6203 53.3424C80.9935 52.8122 81.648 52.5292 82.2942 52.4885C82.9405 52.4477 83.5823 52.6227 84.1857 52.8584C84.8712 53.1261 85.551 53.496 85.9729 54.1001C86.4859 54.8346 86.5353 55.8222 86.2787 56.6811C86.1226 57.2036 85.5899 57.8419 85.1966 58.2618Z" fill="#2F2E41"/>
<path d="M102.895 94H62.8421C62.8142 94 62.7875 93.9889 62.7678 93.9691C62.7481 93.9494 62.737 93.9226 62.737 93.8946C62.737 93.8667 62.7481 93.8399 62.7678 93.8202C62.7875 93.8004 62.8142 93.7893 62.8421 93.7893H102.895C102.923 93.7893 102.949 93.8004 102.969 93.8202C102.989 93.8399 103 93.8667 103 93.8946C103 93.9226 102.989 93.9494 102.969 93.9691C102.949 93.9889 102.923 94 102.895 94Z" fill="#3F3D56"/>
</svg>
