<svg width="116" height="116" viewBox="0 0 116 116" fill="none" xmlns="http://www.w3.org/2000/svg">
<circle cx="58" cy="58" r="58" fill="#F4F8FC"/>
<path d="M87.246 81H29.7253C26.0113 81 23 77.9391 23 74.164V41.836C23 38.0609 26.0113 35 29.7253 35H87.246C90.9598 35 93.9714 38.0609 93.9714 41.836V74.164C93.9714 77.9391 90.9598 81 87.246 81Z" fill="#06857C"/>
<path d="M41.0757 72.8829C49.1614 72.8829 55.716 66.2204 55.716 58.0018C55.716 49.7831 49.1614 43.1206 41.0757 43.1206C32.99 43.1206 26.4353 49.7831 26.4353 58.0018C26.4353 66.2204 32.99 72.8829 41.0757 72.8829Z" fill="white"/>
<mask id="mask0" mask-type="alpha" maskUnits="userSpaceOnUse" x="26" y="43" width="30" height="30">
<path d="M41.0757 72.8829C49.1614 72.8829 55.716 66.2204 55.716 58.0018C55.716 49.7831 49.1614 43.1206 41.0757 43.1206C32.99 43.1206 26.4353 49.7831 26.4353 58.0018C26.4353 66.2204 32.99 72.8829 41.0757 72.8829Z" fill="white"/>
</mask>
<g mask="url(#mask0)">
<path d="M31.469 61.3348C32.7777 59.8875 32.6996 58.8332 32.9933 56.9287C33.2126 55.4927 33.1123 54.4271 33.4022 53.18C34.0342 50.4857 33.5733 49.269 35.5696 46.7522C38.265 43.3588 42.3656 42.399 43.4772 44.8477C45.1168 44.4886 45.7339 46.0645 46.5221 48.8343C47.1652 51.0979 47.2917 51.5136 47.6931 52.942C48.2805 55.0241 47.7266 56.8531 47.6337 58.5385C47.5147 60.6811 47.5147 62.2304 48.9237 63.1222C50.3327 64.014 51.5373 64.5544 49.4999 65.5861C47.7749 66.4627 42.5144 66.1755 40.9455 66.0659L40.9418 66.1037C40.9418 66.1037 34.7852 65.5482 32.2944 65.5482C29.8035 63.7042 30.1641 62.7821 31.469 61.3348Z" fill="#140808"/>
<path d="M44.4364 52.6925C44.3619 53.18 44.4437 53.7657 44.7374 54.068C44.8675 54.204 45.0684 54.3212 45.2393 54.1965C45.4104 54.0718 45.5182 53.8148 45.6408 53.6259C45.9308 53.18 46.1614 52.6434 46.1056 52.069C46.0647 51.6496 45.8156 51.4606 45.5145 51.4115C45.0386 51.3321 44.5553 51.9065 44.4364 52.6925Z" fill="#C4947E"/>
<path opacity="0.22" d="M45.2282 52.6585C45.1911 52.9571 45.1911 53.3085 45.2617 53.4747C45.2914 53.5504 45.3434 53.607 45.3954 53.5201C45.4474 53.4332 45.4845 53.2707 45.5254 53.1498C45.622 52.8626 45.7037 52.5225 45.7074 52.1748C45.7111 51.9217 45.648 51.8234 45.5663 51.8121C45.4437 51.7932 45.2914 52.1711 45.2282 52.6585Z" fill="#DA8151"/>
<path d="M36.8895 52.8702C36.9638 53.3577 36.882 53.9434 36.5883 54.2458C36.4582 54.3818 36.2575 54.4989 36.0864 54.3743C35.9155 54.2495 35.8077 53.9926 35.6849 53.8037C35.3949 53.3577 35.1645 52.8211 35.2203 52.2467C35.2611 51.8273 35.5102 51.6384 35.8114 51.5892C36.2873 51.5099 36.7668 52.0842 36.8895 52.8702Z" fill="#C4947E"/>
<path opacity="0.22" d="M36.0972 52.8361C36.1343 53.1347 36.1343 53.4861 36.0638 53.6523C36.034 53.728 35.982 53.7847 35.93 53.6977C35.878 53.6108 35.8409 53.4483 35.8 53.3274C35.7034 53.0402 35.6217 52.7001 35.618 52.3524C35.6143 52.0993 35.6775 52.001 35.7592 51.9897C35.8817 51.9708 36.034 52.3524 36.0972 52.8361Z" fill="#DA8151"/>
<path d="M42.0758 55.8668H38.9863C39.3619 57.9678 39.2466 61.4217 38.4919 64.116C38.109 65.4953 39.1351 66.8633 40.5292 66.8633C41.9197 66.8633 42.9495 65.4953 42.5665 64.116C41.8192 61.418 41.7003 57.9678 42.0758 55.8668Z" fill="#B38978"/>
<path d="M45.6857 51.1395C45.6857 54.3439 43.4513 59.211 40.6965 59.211C37.9417 59.211 35.7074 54.3439 35.7074 51.1395C35.7074 47.935 37.9417 45.8376 40.6965 45.8376C43.4513 45.8376 45.6857 47.935 45.6857 51.1395Z" fill="#C4947E"/>
<path d="M35.3988 48.5094C35.291 45.8603 37.5774 44.4886 40.7263 44.3299C40.73 44.3299 40.7486 44.3186 40.756 44.3186C40.7597 44.3186 40.7634 44.3186 40.7709 44.3186C44.2767 44.4924 46.2211 45.8641 46.1133 48.5094L46.0909 48.6945C46.1281 49.284 46.05 49.9264 45.8642 50.6104L45.7712 51.3888C45.7712 51.2906 45.7712 51.1432 45.7601 50.958C45.7601 50.9618 45.7563 50.9656 45.7563 50.9656C45.7563 50.9656 45.0425 48.6076 42.8714 47.2019C38.6741 48.3582 36.2167 48.8381 35.726 50.9883C35.7074 51.2679 35.7148 51.4417 35.7148 51.4417L35.6219 50.5801C35.5401 50.1947 35.4992 49.8054 35.4992 49.4238L35.3988 48.5094Z" fill="#140808"/>
<path d="M45.7489 51.5296L45.7677 51.3888C45.7677 51.4801 45.7639 51.5296 45.7639 51.5296H45.7489Z" fill="#140808"/>
<path d="M43.4772 57.5824C43.4772 57.5824 42.5403 64.1312 45.9941 66.8671C49.4479 69.6068 50.9721 68.594 50.9721 68.594C50.9721 68.594 51.0911 68.1179 50.8532 66.8066C50.6078 65.4349 49.775 65.2044 48.392 62.699C47.009 60.1937 44.704 58.5309 44.704 58.5309L43.4772 57.5824Z" fill="#140808"/>
<path d="M44.4624 51.4945C44.4624 51.4945 43.1351 50.614 41.9232 51.4945H44.4624Z" fill="#140808"/>
<path d="M39.6739 51.4945C39.6739 51.4945 38.3467 50.614 37.1348 51.4945H39.6739Z" fill="#140808"/>
<path d="M38.2909 52.6888C38.4201 52.6888 38.5249 52.5821 38.5249 52.4507C38.5249 52.3192 38.4201 52.2126 38.2909 52.2126C38.1617 52.2126 38.0569 52.3192 38.0569 52.4507C38.0569 52.5821 38.1617 52.6888 38.2909 52.6888Z" fill="black"/>
<path d="M43.2092 52.6888C43.3385 52.6888 43.4432 52.5821 43.4432 52.4507C43.4432 52.3192 43.3385 52.2126 43.2092 52.2126C43.0799 52.2126 42.9752 52.3192 42.9752 52.4507C42.9752 52.5821 43.0799 52.6888 43.2092 52.6888Z" fill="black"/>
<g opacity="0.7">
<path opacity="0.7" d="M40.6965 57.0117C41.3694 57.0117 41.9122 56.8719 41.9122 56.1804H39.4771C39.4808 56.8719 40.0235 57.0117 40.6965 57.0117Z" fill="white"/>
<path opacity="0.25" d="M38.3469 56.785C38.8089 56.785 39.1834 56.4044 39.1834 55.9348C39.1834 55.4653 38.8089 55.0846 38.3469 55.0846C37.8849 55.0846 37.5104 55.4653 37.5104 55.9348C37.5104 56.4044 37.8849 56.785 38.3469 56.785Z" fill="#DB8660"/>
<path opacity="0.25" d="M43.0497 56.785C43.5117 56.785 43.8862 56.4044 43.8862 55.9348C43.8862 55.4653 43.5117 55.0846 43.0497 55.0846C42.5878 55.0846 42.2132 55.4653 42.2132 55.9348C42.2132 56.4044 42.5878 56.785 43.0497 56.785Z" fill="#DB8660"/>
</g>
<path d="M52.9055 85.0319H28.4914L29.3724 77.682C29.6475 75.3958 29.5546 73.1021 29.0936 70.8272L28.4914 67.8419C28.4914 65.1325 32.0938 62.9369 36.5328 62.9369H44.8604C49.303 62.9369 52.9019 65.1325 52.9019 67.8419L52.2995 70.8272C51.8386 73.1021 51.7456 75.3958 52.0207 77.682L52.9055 85.0319Z" fill="#FFB41E"/>
<path d="M43.4773 57.5824C43.4773 57.5824 42.5404 64.1312 45.9941 66.8671C49.4479 69.6068 50.9722 68.594 50.9722 68.594C50.9722 68.594 51.0911 68.1179 50.8532 66.8066C50.6078 65.4349 49.7751 65.2044 48.3921 62.699C47.0091 60.1937 44.7041 58.5309 44.7041 58.5309L43.4773 57.5824Z" fill="#140808"/>
</g>
<path d="M85.8292 44.553H59.0621V47.9539H85.8292V44.553Z" fill="white"/>
<path d="M85.8292 52.4885H59.0621V55.8894H85.8292V52.4885Z" fill="white"/>
<path d="M85.8292 60.4241H59.0621V63.825H85.8292V60.4241Z" fill="white"/>
<path d="M85.8292 68.3597H59.0621V71.7607H85.8292V68.3597Z" fill="white"/>
</svg>
